<svg width="150" height="36" viewBox="0 0 184 39" fill="none" xmlns="http://www.w3.org/2000/svg">
<path d="M1.37317 16.49H5.81067L7.37317 7.58374H4.06067L1.37317 16.49ZM8.31067 16.49H12.7482L14.3107 7.58374H10.9982L8.31067 16.49ZM181.998 7.61499H177.561L175.998 16.5212H179.311L181.998 7.61499ZM169.061 16.5212H172.373L175.061 7.61499H170.623L169.061 16.5212Z" fill="#FB923C"/>
<path d="M33.0919 15.49H37.8419C37.2169 10.2869 33.2794 7.30249 28.0607 7.30249C22.0919 7.30249 17.5294 11.5369 17.5294 18.9275C17.5294 26.2869 22.0138 30.5525 28.0607 30.5525C33.8107 30.5525 37.3263 26.74 37.8419 22.5525L33.0919 22.5212C32.6388 24.9744 30.7013 26.3806 28.1232 26.3962C24.67 26.3806 22.3107 23.8025 22.3107 18.9275C22.3107 14.1619 24.6388 11.4744 28.1544 11.4587C30.795 11.4744 32.7169 12.99 33.0919 15.49ZM45.6544 20.4275C45.6544 18.1931 47.0138 16.8962 48.9669 16.8962C50.9044 16.8962 52.0294 18.1306 52.0294 20.24V30.24H56.6544V19.4275C56.6544 15.4431 54.3263 13.0525 50.7794 13.0525C48.2013 13.0525 46.4982 14.2556 45.7169 16.24H45.5294V7.61499H41.0294V30.24H45.6544V20.4275ZM59.4044 25.49C59.42 28.8494 61.8107 30.5681 65.0607 30.5525C67.5763 30.5681 69.2013 29.4587 70.0294 27.8962H70.1544V30.24H74.5294V18.8025C74.545 14.7087 71.045 13.0525 67.3419 13.0525C62.8419 13.0525 60.2794 15.365 59.9982 18.3025H64.4044C64.6544 17.1462 65.6388 16.4431 67.2169 16.4275C68.9513 16.4431 69.92 17.2556 69.9357 18.6775V20.0525C69.2169 20.0837 66.9357 20.1931 65.7169 20.2712C62.4513 20.4744 59.42 21.7087 59.4044 25.49ZM63.8419 25.365C63.8419 24.0525 64.8575 23.2869 66.4669 23.1462C67.2482 23.0837 69.2325 22.9744 69.9357 22.9431V24.1775C69.9513 25.9744 68.4825 27.3494 66.3732 27.365C64.8888 27.3494 63.8419 26.6619 63.8419 25.365ZM84.3107 30.5212C87.0763 30.5212 88.4825 28.9275 89.1232 27.5212H89.3419V30.24H93.9044V7.61499H89.2794V16.115H89.1232C88.5138 14.74 87.1544 13.0525 84.3107 13.0525C80.5607 13.0525 77.4044 15.9587 77.4044 21.7712C77.4044 27.4431 80.4357 30.5212 84.3107 30.5212ZM82.1544 21.74C82.1388 18.7869 83.3888 16.74 85.7482 16.74C88.0763 16.74 89.3732 18.6931 89.3732 21.74C89.3732 24.8025 88.0607 26.8181 85.7482 26.8337C83.4044 26.8181 82.1388 24.74 82.1544 21.74ZM106.342 30.24H114.561C119.904 30.24 122.139 27.6306 122.154 24.24C122.139 20.6462 119.67 18.7087 117.561 18.5837V18.365C119.529 17.8181 121.264 16.5212 121.248 13.615C121.264 10.2869 119.029 7.61499 114.279 7.61499H106.342V30.24ZM109.154 27.74V19.9587H114.686C117.592 19.9587 119.451 21.9119 119.436 24.2087C119.451 26.1775 118.076 27.74 114.529 27.74H109.154ZM109.154 17.5212V10.115H114.279C117.233 10.115 118.561 11.6775 118.561 13.6462C118.561 16.0056 116.639 17.5369 114.186 17.5212H109.154ZM128.498 7.61499H125.811V30.24H128.498V7.61499ZM139.717 30.5837C144.326 30.5994 147.42 27.0994 147.404 21.8337C147.42 16.5369 144.326 13.0525 139.717 13.0525C135.092 13.0525 131.967 16.5369 131.967 21.8337C131.967 27.0994 135.092 30.5994 139.717 30.5837ZM134.654 21.8337C134.67 18.4587 136.264 15.4275 139.717 15.4275C143.139 15.4275 144.717 18.4587 144.717 21.8337C144.717 25.2244 143.139 28.2087 139.717 28.2087C136.264 28.2087 134.67 25.2244 134.654 21.8337ZM157.811 36.9587C161.951 36.9587 165.17 35.0837 165.186 30.7087V13.2712H162.561V15.9587H162.342C161.733 15.0525 160.67 13.0525 157.373 13.0525C153.108 13.0525 150.123 16.3025 150.123 21.5212C150.123 26.865 153.217 29.9744 157.342 29.99C160.623 29.9744 161.701 28.0525 162.279 27.115H162.498V30.5525C162.498 33.3494 160.717 34.615 157.811 34.615C155.404 34.615 153.795 33.7556 153.436 32.0212H150.623C150.92 35.1619 153.701 36.9587 157.811 36.9587ZM152.842 21.615C152.842 18.1931 154.451 15.4587 157.717 15.4587C160.873 15.4587 162.545 17.9744 162.561 21.615C162.545 25.3494 160.826 27.5837 157.717 27.5837C154.498 27.5837 152.842 25.1306 152.842 21.615Z" fill="black"/>
</svg>
